<svg width="14" height="15" viewBox="0 0 14 15" fill="none" xmlns="http://www.w3.org/2000/svg">
<path d="M6.99981 8.90005L2.0998 13.8C1.91647 13.9834 1.68314 14.0751 1.3998 14.0751C1.11647 14.0751 0.883138 13.9834 0.699804 13.8C0.516471 13.6167 0.424805 13.3834 0.424805 13.1001C0.424805 12.8167 0.516471 12.5834 0.699804 12.4L5.59981 7.50005L0.699804 2.60005C0.516471 2.41672 0.424805 2.18338 0.424805 1.90005C0.424805 1.61672 0.516471 1.38338 0.699804 1.20005C0.883138 1.01672 1.11647 0.925049 1.3998 0.925049C1.68314 0.925049 1.91647 1.01672 2.0998 1.20005L6.99981 6.10005L11.8998 1.20005C12.0831 1.01672 12.3165 0.925049 12.5998 0.925049C12.8831 0.925049 13.1165 1.01672 13.2998 1.20005C13.4831 1.38338 13.5748 1.61672 13.5748 1.90005C13.5748 2.18338 13.4831 2.41672 13.2998 2.60005L8.39981 7.50005L13.2998 12.4C13.4831 12.5834 13.5748 12.8167 13.5748 13.1001C13.5748 13.3834 13.4831 13.6167 13.2998 13.8C13.1165 13.9834 12.8831 14.0751 12.5998 14.0751C12.3165 14.0751 12.0831 13.9834 11.8998 13.8L6.99981 8.90005Z" fill="#323232"/>
</svg>
